<svg class="hero-art" viewBox="0 0 900 90" preserveAspectRatio="xMidYMid slice" aria-hidden="true">
 <g transform="translate(160,0)">
  <g stroke="currentColor" stroke-width="1.2" fill="none">
    <line x1="20" y1="20" x2="260" y2="20"/><line x1="20" y1="28" x2="260" y2="28"/>
    <line x1="20" y1="36" x2="260" y2="36"/><line x1="20" y1="44" x2="260" y2="44"/>
    <line x1="20" y1="52" x2="260" y2="52"/>
  </g>
  <text x="40" y="48" font-size="24" fill="currentColor" font-family="Georgia,serif">&#9834;</text>
  <text x="95" y="42" font-size="20" fill="currentColor" font-family="Georgia,serif">&#9835;</text>
  <text x="150" y="50" font-size="22" fill="currentColor" font-family="Georgia,serif">&#9834;</text>
  <g transform="translate(400,28)">
    <rect x="0" y="0" width="130" height="34" rx="5" fill="none" stroke="currentColor" stroke-width="2"/>
    <line x1="0" y1="17" x2="130" y2="17" stroke="currentColor" stroke-width="1"/>
    <g stroke="currentColor" stroke-width="1.4">
      <line x1="12" y1="6" x2="12" y2="28"/><line x1="24" y1="6" x2="24" y2="28"/>
      <line x1="36" y1="6" x2="36" y2="28"/><line x1="48" y1="6" x2="48" y2="28"/>
      <line x1="60" y1="6" x2="60" y2="28"/><line x1="72" y1="6" x2="72" y2="28"/>
      <line x1="84" y1="6" x2="84" y2="28"/><line x1="96" y1="6" x2="96" y2="28"/>
      <line x1="108" y1="6" x2="108" y2="28"/><line x1="120" y1="6" x2="120" y2="28"/>
    </g>
  </g>
  <g transform="translate(560,22)">
    <rect x="0" y="0" width="156" height="30" rx="5" fill="none" stroke="currentColor" stroke-width="2"/>
    <line x1="0" y1="15" x2="156" y2="15" stroke="currentColor" stroke-width="1"/>
    <g stroke="currentColor" stroke-width="1.2">
      <line x1="12" y1="5" x2="12" y2="25"/><line x1="24" y1="5" x2="24" y2="25"/>
      <line x1="36" y1="5" x2="36" y2="25"/><line x1="48" y1="5" x2="48" y2="25"/>
      <line x1="60" y1="5" x2="60" y2="25"/><line x1="72" y1="5" x2="72" y2="25"/>
      <line x1="84" y1="5" x2="84" y2="25"/><line x1="96" y1="5" x2="96" y2="25"/>
      <line x1="108" y1="5" x2="108" y2="25"/><line x1="120" y1="5" x2="120" y2="25"/>
      <line x1="132" y1="5" x2="132" y2="25"/><line x1="144" y1="5" x2="144" y2="25"/>
    </g>
    <!-- Slide button: shorter than the comb, sat against its right end -->
    <rect x="156" y="8" width="12" height="14" rx="3" fill="none" stroke="currentColor" stroke-width="2"/>
  </g>
 </g>
</svg>
